# xmcd
#
# Track frame offsets: 
#        150
#        15684
#        33457
#        50070
#        67835
#        80250
#        95942
#        117399
#        133729
#        152555
#
# Disc length: 2122 seconds
#
# Revision: 2
# Processed by: cddbd v1.5.2PL0 Copyright (c) Steve Scherf et al.
# Submitted via: ExactAudioCopy v0.99pb5
#
DISCID=8308480a
DTITLE=Tim Grimm - Wilderness Songs and Bad Man Ballads
DYEAR=2011
DGENRE=Folk
TTITLE0=China
TTITLE1=Fruit
TTITLE2=Law and Order
TTITLE3=Salt and Bullets
TTITLE4=Cover These Bones
TTITLE5=Whippoorwill
TTITLE6=Rebecca Versailles
TTITLE7=Frostbite on the Soul
TTITLE8=Squaw
TTITLE9=Zenas Carter
EXTD=
EXTT0=
EXTT1=
EXTT2=
EXTT3=
EXTT4=
EXTT5=
EXTT6=
EXTT7=
EXTT8=
EXTT9=
PLAYORDER=
